<mxfile host="Electron" modified="2024-02-28T04:24:34.641Z" agent="Mozilla/5.0 (Windows NT 10.0; Win64; x64) AppleWebKit/537.36 (KHTML, like Gecko) draw.io/23.1.5 Chrome/120.0.6099.109 Electron/28.1.0 Safari/537.36" etag="JIIOLYIPl87s7pGDS2oZ" version="23.1.5" type="device" pages="2">
  <diagram name="Architecture" id="e1FNu4yzh11bTkqCAhZL">
    <mxGraphModel dx="1421" dy="872" grid="1" gridSize="10" guides="1" tooltips="1" connect="1" arrows="1" fold="1" page="0" pageScale="1" pageWidth="827" pageHeight="1169" math="0" shadow="0">
      <root>
        <mxCell id="Gh66UIWxWMUWXdYuz4zB-0" />
        <mxCell id="Gh66UIWxWMUWXdYuz4zB-1" parent="Gh66UIWxWMUWXdYuz4zB-0" />
        <mxCell id="Gh66UIWxWMUWXdYuz4zB-2" value="" style="rounded=0;whiteSpace=wrap;html=1;strokeColor=none;labelBorderColor=default;" parent="Gh66UIWxWMUWXdYuz4zB-1" vertex="1">
          <mxGeometry x="39" y="124" width="790" height="550" as="geometry" />
        </mxCell>
        <mxCell id="Gh66UIWxWMUWXdYuz4zB-3" style="edgeStyle=orthogonalEdgeStyle;rounded=1;html=1;entryX=0;entryY=0.5;entryDx=0;entryDy=0;spacingLeft=5;exitX=0.5;exitY=1;exitDx=0;exitDy=0;" parent="Gh66UIWxWMUWXdYuz4zB-1" source="Gh66UIWxWMUWXdYuz4zB-11" target="Gh66UIWxWMUWXdYuz4zB-5" edge="1">
          <mxGeometry relative="1" as="geometry">
            <mxPoint x="80.02857142857147" y="460" as="sourcePoint" />
          </mxGeometry>
        </mxCell>
        <mxCell id="Gh66UIWxWMUWXdYuz4zB-4" value="" style="edgeStyle=orthogonalEdgeStyle;rounded=1;html=1;exitX=1;exitY=0.5;exitDx=0;exitDy=0;verticalAlign=middle;endArrow=none;endFill=0;" parent="Gh66UIWxWMUWXdYuz4zB-1" source="Gh66UIWxWMUWXdYuz4zB-5" target="oEFmnX0xsvGXvviFBwLB-24" edge="1">
          <mxGeometry relative="1" as="geometry">
            <mxPoint x="370" y="150" as="targetPoint" />
            <Array as="points">
              <mxPoint x="330" y="535" />
              <mxPoint x="330" y="150" />
            </Array>
          </mxGeometry>
        </mxCell>
        <mxCell id="Gh66UIWxWMUWXdYuz4zB-5" value="&lt;div&gt;5c8e82b7402c93c53a5d556b1...&lt;/div&gt;" style="rounded=0;whiteSpace=wrap;html=1;align=left;verticalAlign=top;spacingLeft=5;" parent="Gh66UIWxWMUWXdYuz4zB-1" vertex="1">
          <mxGeometry x="110" y="520" width="190" height="30" as="geometry" />
        </mxCell>
        <mxCell id="Gh66UIWxWMUWXdYuz4zB-6" value="&lt;div&gt;&lt;span style=&quot;background-color: initial;&quot;&gt;-----BEGIN PGP MESSAGE-----&lt;/span&gt;&lt;br&gt;&lt;/div&gt;&lt;div&gt;&lt;span style=&quot;background-color: initial;&quot;&gt;jA0EBwMCwaomXBEkcsLe0jcB&lt;/span&gt;&lt;br&gt;&lt;/div&gt;&lt;div&gt;o2LoeivDotvy8wAO8VWWD7Pw&lt;/div&gt;&lt;div&gt;tP9Z+rewa2yFBK3e9jjXd2DtqNt/&lt;/div&gt;&lt;div&gt;=6wLa&lt;/div&gt;&lt;div&gt;-----END PGP MESSAGE-----&lt;/div&gt;" style="rounded=0;whiteSpace=wrap;html=1;align=left;verticalAlign=top;spacingLeft=5;" parent="Gh66UIWxWMUWXdYuz4zB-1" vertex="1">
          <mxGeometry x="110" y="550" width="190" height="100" as="geometry" />
        </mxCell>
        <mxCell id="Gh66UIWxWMUWXdYuz4zB-7" value="Encrypted file" style="rounded=0;whiteSpace=wrap;html=1;align=center;verticalAlign=top;fillColor=#cce5ff;strokeColor=#36393d;" parent="Gh66UIWxWMUWXdYuz4zB-1" vertex="1">
          <mxGeometry x="110" y="490" width="190" height="30" as="geometry" />
        </mxCell>
        <mxCell id="oEFmnX0xsvGXvviFBwLB-39" style="edgeStyle=orthogonalEdgeStyle;rounded=1;html=1;exitX=0.5;exitY=1;exitDx=0;exitDy=0;" parent="Gh66UIWxWMUWXdYuz4zB-1" source="Gh66UIWxWMUWXdYuz4zB-8" target="oEFmnX0xsvGXvviFBwLB-38" edge="1">
          <mxGeometry relative="1" as="geometry" />
        </mxCell>
        <mxCell id="Gh66UIWxWMUWXdYuz4zB-8" value="hash 1" style="rounded=0;whiteSpace=wrap;html=1;align=center;verticalAlign=top;spacingLeft=0;" parent="Gh66UIWxWMUWXdYuz4zB-1" vertex="1">
          <mxGeometry x="385" y="364" width="52" height="30" as="geometry" />
        </mxCell>
        <mxCell id="Gh66UIWxWMUWXdYuz4zB-9" value="" style="endArrow=classic;html=1;rounded=1;entryX=0.5;entryY=0;entryDx=0;entryDy=0;edgeStyle=orthogonalEdgeStyle;verticalAlign=middle;" parent="Gh66UIWxWMUWXdYuz4zB-1" source="oEFmnX0xsvGXvviFBwLB-5" target="Gh66UIWxWMUWXdYuz4zB-8" edge="1">
          <mxGeometry x="0.4088" width="50" height="50" relative="1" as="geometry">
            <mxPoint x="410" y="274" as="sourcePoint" />
            <mxPoint x="555" y="264" as="targetPoint" />
            <mxPoint as="offset" />
          </mxGeometry>
        </mxCell>
        <mxCell id="Gh66UIWxWMUWXdYuz4zB-11" value="generate random&lt;br&gt;seed" style="ellipse;whiteSpace=wrap;html=1;aspect=fixed;spacingTop=4;" parent="Gh66UIWxWMUWXdYuz4zB-1" vertex="1">
          <mxGeometry x="60" y="390" width="60" height="60" as="geometry" />
        </mxCell>
        <mxCell id="Gh66UIWxWMUWXdYuz4zB-14" style="edgeStyle=orthogonalEdgeStyle;rounded=1;html=1;" parent="Gh66UIWxWMUWXdYuz4zB-1" source="oEFmnX0xsvGXvviFBwLB-9" target="oEFmnX0xsvGXvviFBwLB-3" edge="1">
          <mxGeometry relative="1" as="geometry">
            <mxPoint x="481" y="344" as="sourcePoint" />
            <mxPoint x="497.30555555555566" y="369" as="targetPoint" />
          </mxGeometry>
        </mxCell>
        <mxCell id="Gh66UIWxWMUWXdYuz4zB-16" value="Plain text" style="rounded=0;whiteSpace=wrap;html=1;align=center;verticalAlign=top;fillColor=#cce5ff;strokeColor=#36393d;" parent="Gh66UIWxWMUWXdYuz4zB-1" vertex="1">
          <mxGeometry x="511" y="541" width="140" height="30" as="geometry" />
        </mxCell>
        <mxCell id="Gh66UIWxWMUWXdYuz4zB-17" style="edgeStyle=orthogonalEdgeStyle;rounded=1;html=1;entryX=1;entryY=0.5;entryDx=0;entryDy=0;startArrow=classic;startFill=1;" parent="Gh66UIWxWMUWXdYuz4zB-1" source="Gh66UIWxWMUWXdYuz4zB-18" target="Gh66UIWxWMUWXdYuz4zB-20" edge="1">
          <mxGeometry relative="1" as="geometry" />
        </mxCell>
        <mxCell id="Gh66UIWxWMUWXdYuz4zB-18" value="&lt;div&gt;Secret sandwich recipe&lt;/div&gt;&lt;div&gt;- bread&lt;/div&gt;&lt;div&gt;&lt;span style=&quot;background-color: initial;&quot;&gt;- vegemite&lt;/span&gt;&lt;br&gt;&lt;/div&gt;" style="rounded=0;whiteSpace=wrap;html=1;align=left;verticalAlign=top;spacingLeft=5;" parent="Gh66UIWxWMUWXdYuz4zB-1" vertex="1">
          <mxGeometry x="511" y="571" width="140" height="58" as="geometry" />
        </mxCell>
        <mxCell id="Gh66UIWxWMUWXdYuz4zB-19" style="edgeStyle=orthogonalEdgeStyle;rounded=1;html=1;entryX=1;entryY=0.5;entryDx=0;entryDy=0;startArrow=classic;startFill=1;" parent="Gh66UIWxWMUWXdYuz4zB-1" source="Gh66UIWxWMUWXdYuz4zB-20" target="Gh66UIWxWMUWXdYuz4zB-6" edge="1">
          <mxGeometry relative="1" as="geometry" />
        </mxCell>
        <mxCell id="Gh66UIWxWMUWXdYuz4zB-20" value="en-/decrypt symmetrically with GnuPG" style="ellipse;whiteSpace=wrap;html=1;aspect=fixed;spacingTop=0;" parent="Gh66UIWxWMUWXdYuz4zB-1" vertex="1">
          <mxGeometry x="371" y="560" width="80" height="80" as="geometry" />
        </mxCell>
        <mxCell id="oEFmnX0xsvGXvviFBwLB-3" value="hash 2" style="rounded=0;whiteSpace=wrap;html=1;align=center;verticalAlign=top;spacingLeft=0;" parent="Gh66UIWxWMUWXdYuz4zB-1" vertex="1">
          <mxGeometry x="461" y="364" width="50" height="30" as="geometry" />
        </mxCell>
        <mxCell id="oEFmnX0xsvGXvviFBwLB-42" style="edgeStyle=orthogonalEdgeStyle;rounded=1;html=1;exitX=0.5;exitY=1;exitDx=0;exitDy=0;" parent="Gh66UIWxWMUWXdYuz4zB-1" source="oEFmnX0xsvGXvviFBwLB-4" target="oEFmnX0xsvGXvviFBwLB-38" edge="1">
          <mxGeometry relative="1" as="geometry" />
        </mxCell>
        <mxCell id="oEFmnX0xsvGXvviFBwLB-4" value="key n" style="rounded=0;whiteSpace=wrap;html=1;align=center;verticalAlign=top;spacingLeft=0;" parent="Gh66UIWxWMUWXdYuz4zB-1" vertex="1">
          <mxGeometry x="555.5" y="364" width="51" height="30" as="geometry" />
        </mxCell>
        <mxCell id="oEFmnX0xsvGXvviFBwLB-5" value="hash&lt;br&gt;key" style="ellipse;whiteSpace=wrap;html=1;aspect=fixed;spacingTop=0;" parent="Gh66UIWxWMUWXdYuz4zB-1" vertex="1">
          <mxGeometry x="386" y="294" width="50" height="50" as="geometry" />
        </mxCell>
        <mxCell id="oEFmnX0xsvGXvviFBwLB-8" style="edgeStyle=orthogonalEdgeStyle;rounded=1;html=1;entryX=0.5;entryY=0;entryDx=0;entryDy=0;" parent="Gh66UIWxWMUWXdYuz4zB-1" source="oEFmnX0xsvGXvviFBwLB-7" target="oEFmnX0xsvGXvviFBwLB-12" edge="1">
          <mxGeometry relative="1" as="geometry" />
        </mxCell>
        <mxCell id="oEFmnX0xsvGXvviFBwLB-7" value="derive&lt;br&gt;key" style="ellipse;whiteSpace=wrap;html=1;aspect=fixed;spacingTop=0;" parent="Gh66UIWxWMUWXdYuz4zB-1" vertex="1">
          <mxGeometry x="386" y="174" width="50" height="50" as="geometry" />
        </mxCell>
        <mxCell id="oEFmnX0xsvGXvviFBwLB-9" value="hash&lt;br&gt;key" style="ellipse;whiteSpace=wrap;html=1;aspect=fixed;spacingTop=0;" parent="Gh66UIWxWMUWXdYuz4zB-1" vertex="1">
          <mxGeometry x="461" y="294" width="50" height="50" as="geometry" />
        </mxCell>
        <mxCell id="oEFmnX0xsvGXvviFBwLB-10" style="edgeStyle=orthogonalEdgeStyle;rounded=1;html=1;" parent="Gh66UIWxWMUWXdYuz4zB-1" source="oEFmnX0xsvGXvviFBwLB-11" target="oEFmnX0xsvGXvviFBwLB-14" edge="1">
          <mxGeometry relative="1" as="geometry" />
        </mxCell>
        <mxCell id="oEFmnX0xsvGXvviFBwLB-11" value="derive&lt;br&gt;key" style="ellipse;whiteSpace=wrap;html=1;aspect=fixed;spacingTop=0;" parent="Gh66UIWxWMUWXdYuz4zB-1" vertex="1">
          <mxGeometry x="461" y="174" width="50" height="50" as="geometry" />
        </mxCell>
        <mxCell id="oEFmnX0xsvGXvviFBwLB-35" style="edgeStyle=orthogonalEdgeStyle;rounded=1;html=1;entryX=0.5;entryY=0;entryDx=0;entryDy=0;" parent="Gh66UIWxWMUWXdYuz4zB-1" source="oEFmnX0xsvGXvviFBwLB-12" target="oEFmnX0xsvGXvviFBwLB-5" edge="1">
          <mxGeometry relative="1" as="geometry" />
        </mxCell>
        <mxCell id="oEFmnX0xsvGXvviFBwLB-12" value="key 1" style="rounded=0;whiteSpace=wrap;html=1;align=center;verticalAlign=top;spacingLeft=0;" parent="Gh66UIWxWMUWXdYuz4zB-1" vertex="1">
          <mxGeometry x="385.085" y="244" width="51.83" height="30" as="geometry" />
        </mxCell>
        <mxCell id="oEFmnX0xsvGXvviFBwLB-16" style="edgeStyle=orthogonalEdgeStyle;rounded=1;html=1;" parent="Gh66UIWxWMUWXdYuz4zB-1" source="oEFmnX0xsvGXvviFBwLB-14" target="oEFmnX0xsvGXvviFBwLB-9" edge="1">
          <mxGeometry relative="1" as="geometry" />
        </mxCell>
        <mxCell id="oEFmnX0xsvGXvviFBwLB-34" style="edgeStyle=orthogonalEdgeStyle;rounded=1;html=1;" parent="Gh66UIWxWMUWXdYuz4zB-1" source="oEFmnX0xsvGXvviFBwLB-17" target="oEFmnX0xsvGXvviFBwLB-4" edge="1">
          <mxGeometry relative="1" as="geometry" />
        </mxCell>
        <mxCell id="oEFmnX0xsvGXvviFBwLB-17" value="hash&lt;br&gt;key" style="ellipse;whiteSpace=wrap;html=1;aspect=fixed;spacingTop=0;" parent="Gh66UIWxWMUWXdYuz4zB-1" vertex="1">
          <mxGeometry x="556" y="294" width="50" height="50" as="geometry" />
        </mxCell>
        <mxCell id="oEFmnX0xsvGXvviFBwLB-18" style="edgeStyle=orthogonalEdgeStyle;rounded=1;html=1;" parent="Gh66UIWxWMUWXdYuz4zB-1" source="oEFmnX0xsvGXvviFBwLB-19" target="oEFmnX0xsvGXvviFBwLB-21" edge="1">
          <mxGeometry relative="1" as="geometry" />
        </mxCell>
        <mxCell id="ia34TQOyg5Zt1-6da5yi-11" style="edgeStyle=orthogonalEdgeStyle;rounded=1;html=1;entryX=0;entryY=0.5;entryDx=0;entryDy=0;exitX=1;exitY=0.5;exitDx=0;exitDy=0;" parent="Gh66UIWxWMUWXdYuz4zB-1" source="pyn4r2zV2VYASzcD6feB-1" target="ia34TQOyg5Zt1-6da5yi-5" edge="1">
          <mxGeometry relative="1" as="geometry">
            <Array as="points">
              <mxPoint x="660" y="199" />
              <mxPoint x="660" y="167" />
            </Array>
          </mxGeometry>
        </mxCell>
        <mxCell id="pyn4r2zV2VYASzcD6feB-10" style="edgeStyle=orthogonalEdgeStyle;rounded=1;html=1;entryX=0;entryY=0.5;entryDx=0;entryDy=0;entryPerimeter=0;exitX=1;exitY=0.5;exitDx=0;exitDy=0;" parent="Gh66UIWxWMUWXdYuz4zB-1" source="pyn4r2zV2VYASzcD6feB-1" target="pyn4r2zV2VYASzcD6feB-12" edge="1">
          <mxGeometry relative="1" as="geometry">
            <Array as="points">
              <mxPoint x="660" y="199" />
              <mxPoint x="660" y="334" />
            </Array>
          </mxGeometry>
        </mxCell>
        <mxCell id="oEFmnX0xsvGXvviFBwLB-19" value="derive&lt;br&gt;key" style="ellipse;whiteSpace=wrap;html=1;aspect=fixed;spacingTop=0;" parent="Gh66UIWxWMUWXdYuz4zB-1" vertex="1">
          <mxGeometry x="556" y="174" width="50" height="50" as="geometry" />
        </mxCell>
        <mxCell id="oEFmnX0xsvGXvviFBwLB-20" style="edgeStyle=orthogonalEdgeStyle;rounded=1;html=1;" parent="Gh66UIWxWMUWXdYuz4zB-1" source="oEFmnX0xsvGXvviFBwLB-21" target="oEFmnX0xsvGXvviFBwLB-17" edge="1">
          <mxGeometry relative="1" as="geometry" />
        </mxCell>
        <mxCell id="oEFmnX0xsvGXvviFBwLB-21" value="key n" style="rounded=0;whiteSpace=wrap;html=1;align=center;verticalAlign=top;spacingLeft=0;" parent="Gh66UIWxWMUWXdYuz4zB-1" vertex="1">
          <mxGeometry x="555.5" y="244" width="51" height="30" as="geometry" />
        </mxCell>
        <mxCell id="oEFmnX0xsvGXvviFBwLB-25" style="edgeStyle=orthogonalEdgeStyle;rounded=1;html=1;exitX=0.52;exitY=0.628;exitDx=0;exitDy=0;exitPerimeter=0;" parent="Gh66UIWxWMUWXdYuz4zB-1" source="oEFmnX0xsvGXvviFBwLB-24" target="oEFmnX0xsvGXvviFBwLB-7" edge="1">
          <mxGeometry relative="1" as="geometry">
            <mxPoint x="356" y="153" as="sourcePoint" />
          </mxGeometry>
        </mxCell>
        <mxCell id="oEFmnX0xsvGXvviFBwLB-26" style="edgeStyle=orthogonalEdgeStyle;rounded=1;html=1;entryX=0.5;entryY=0;entryDx=0;entryDy=0;exitX=0.992;exitY=0.516;exitDx=0;exitDy=0;exitPerimeter=0;" parent="Gh66UIWxWMUWXdYuz4zB-1" source="oEFmnX0xsvGXvviFBwLB-24" target="oEFmnX0xsvGXvviFBwLB-11" edge="1">
          <mxGeometry relative="1" as="geometry">
            <mxPoint x="356" y="153" as="sourcePoint" />
          </mxGeometry>
        </mxCell>
        <mxCell id="oEFmnX0xsvGXvviFBwLB-27" style="edgeStyle=orthogonalEdgeStyle;rounded=1;html=1;" parent="Gh66UIWxWMUWXdYuz4zB-1" source="oEFmnX0xsvGXvviFBwLB-24" target="oEFmnX0xsvGXvviFBwLB-19" edge="1">
          <mxGeometry relative="1" as="geometry">
            <mxPoint x="356" y="153" as="sourcePoint" />
          </mxGeometry>
        </mxCell>
        <mxCell id="oEFmnX0xsvGXvviFBwLB-24" value="" style="shape=waypoint;sketch=0;fillStyle=solid;size=6;pointerEvents=1;points=[];fillColor=none;resizable=0;rotatable=0;perimeter=centerPerimeter;snapToPoint=1;strokeColor=none;" parent="Gh66UIWxWMUWXdYuz4zB-1" vertex="1">
          <mxGeometry x="335" y="140" width="20" height="20" as="geometry" />
        </mxCell>
        <mxCell id="oEFmnX0xsvGXvviFBwLB-14" value="key 2" style="rounded=0;whiteSpace=wrap;html=1;align=center;verticalAlign=top;spacingLeft=0;" parent="Gh66UIWxWMUWXdYuz4zB-1" vertex="1">
          <mxGeometry x="460" y="244" width="52" height="30" as="geometry" />
        </mxCell>
        <mxCell id="oEFmnX0xsvGXvviFBwLB-55" style="edgeStyle=orthogonalEdgeStyle;rounded=1;html=1;" parent="Gh66UIWxWMUWXdYuz4zB-1" source="oEFmnX0xsvGXvviFBwLB-38" target="oEFmnX0xsvGXvviFBwLB-54" edge="1">
          <mxGeometry relative="1" as="geometry" />
        </mxCell>
        <mxCell id="oEFmnX0xsvGXvviFBwLB-38" value="hash&lt;br&gt;key" style="ellipse;whiteSpace=wrap;html=1;aspect=fixed;spacingTop=0;" parent="Gh66UIWxWMUWXdYuz4zB-1" vertex="1">
          <mxGeometry x="386" y="434" width="50" height="50" as="geometry" />
        </mxCell>
        <mxCell id="oEFmnX0xsvGXvviFBwLB-41" style="edgeStyle=orthogonalEdgeStyle;rounded=1;html=1;exitX=0.5;exitY=1;exitDx=0;exitDy=0;" parent="Gh66UIWxWMUWXdYuz4zB-1" source="oEFmnX0xsvGXvviFBwLB-3" target="oEFmnX0xsvGXvviFBwLB-38" edge="1">
          <mxGeometry relative="1" as="geometry" />
        </mxCell>
        <mxCell id="oEFmnX0xsvGXvviFBwLB-50" value="..." style="text;html=1;strokeColor=none;fillColor=none;align=center;verticalAlign=middle;whiteSpace=wrap;rounded=0;" parent="Gh66UIWxWMUWXdYuz4zB-1" vertex="1">
          <mxGeometry x="520" y="180" width="28" height="30" as="geometry" />
        </mxCell>
        <mxCell id="oEFmnX0xsvGXvviFBwLB-51" value="..." style="text;html=1;strokeColor=none;fillColor=none;align=center;verticalAlign=middle;whiteSpace=wrap;rounded=0;" parent="Gh66UIWxWMUWXdYuz4zB-1" vertex="1">
          <mxGeometry x="520" y="240" width="28" height="30" as="geometry" />
        </mxCell>
        <mxCell id="oEFmnX0xsvGXvviFBwLB-52" value="..." style="text;html=1;strokeColor=none;fillColor=none;align=center;verticalAlign=middle;whiteSpace=wrap;rounded=0;" parent="Gh66UIWxWMUWXdYuz4zB-1" vertex="1">
          <mxGeometry x="520" y="299" width="28" height="30" as="geometry" />
        </mxCell>
        <mxCell id="oEFmnX0xsvGXvviFBwLB-53" value="..." style="text;html=1;strokeColor=none;fillColor=none;align=center;verticalAlign=middle;whiteSpace=wrap;rounded=0;" parent="Gh66UIWxWMUWXdYuz4zB-1" vertex="1">
          <mxGeometry x="520" y="358" width="28" height="30" as="geometry" />
        </mxCell>
        <mxCell id="oEFmnX0xsvGXvviFBwLB-56" style="edgeStyle=orthogonalEdgeStyle;rounded=1;html=1;" parent="Gh66UIWxWMUWXdYuz4zB-1" source="oEFmnX0xsvGXvviFBwLB-54" target="Gh66UIWxWMUWXdYuz4zB-20" edge="1">
          <mxGeometry relative="1" as="geometry" />
        </mxCell>
        <mxCell id="oEFmnX0xsvGXvviFBwLB-54" value="encryption key" style="rounded=0;whiteSpace=wrap;html=1;align=center;verticalAlign=top;spacingLeft=0;" parent="Gh66UIWxWMUWXdYuz4zB-1" vertex="1">
          <mxGeometry x="366.62" y="505" width="88.76" height="30" as="geometry" />
        </mxCell>
        <mxCell id="ia34TQOyg5Zt1-6da5yi-9" value="" style="group" parent="Gh66UIWxWMUWXdYuz4zB-1" vertex="1" connectable="0">
          <mxGeometry x="681" y="150" width="92.16" height="33.38" as="geometry" />
        </mxCell>
        <mxCell id="ia34TQOyg5Zt1-6da5yi-0" value="" style="rounded=1;whiteSpace=wrap;html=1;fillColor=#000000;strokeColor=none;" parent="ia34TQOyg5Zt1-6da5yi-9" vertex="1">
          <mxGeometry x="65.31023622047248" y="6.530869565217409" width="26.84976377952756" height="21.769565217391307" as="geometry" />
        </mxCell>
        <mxCell id="ia34TQOyg5Zt1-6da5yi-1" value="" style="rounded=0;whiteSpace=wrap;html=1;fillColor=#ffff88;strokeColor=none;" parent="ia34TQOyg5Zt1-6da5yi-9" vertex="1">
          <mxGeometry x="67.48724409448812" y="8.983573913043475" width="21.770078740157476" height="1.9012086956521743" as="geometry" />
        </mxCell>
        <mxCell id="ia34TQOyg5Zt1-6da5yi-2" value="" style="rounded=0;whiteSpace=wrap;html=1;fillColor=#ffff88;strokeColor=none;" parent="ia34TQOyg5Zt1-6da5yi-9" vertex="1">
          <mxGeometry x="67.48724409448812" y="23.721569565217386" width="21.770078740157476" height="1.9012086956521743" as="geometry" />
        </mxCell>
        <mxCell id="ia34TQOyg5Zt1-6da5yi-3" value="" style="rounded=0;whiteSpace=wrap;html=1;fillColor=#ffff88;strokeColor=none;" parent="ia34TQOyg5Zt1-6da5yi-9" vertex="1">
          <mxGeometry x="67.48724409448812" y="13.787391304347823" width="21.770078740157476" height="1.9012086956521743" as="geometry" />
        </mxCell>
        <mxCell id="ia34TQOyg5Zt1-6da5yi-4" value="" style="rounded=0;whiteSpace=wrap;html=1;fillColor=#ffff88;strokeColor=none;" parent="ia34TQOyg5Zt1-6da5yi-9" vertex="1">
          <mxGeometry x="67.48724409448812" y="18.91775217391304" width="21.770078740157476" height="1.9012086956521743" as="geometry" />
        </mxCell>
        <mxCell id="ia34TQOyg5Zt1-6da5yi-5" value="" style="rounded=1;whiteSpace=wrap;html=1;fillColor=#000000;strokeColor=none;" parent="ia34TQOyg5Zt1-6da5yi-9" vertex="1">
          <mxGeometry width="72.56692913385827" height="33.38000000000001" as="geometry" />
        </mxCell>
        <mxCell id="ia34TQOyg5Zt1-6da5yi-6" value="" style="ellipse;whiteSpace=wrap;html=1;aspect=fixed;fillColor=#ffff88;strokeColor=none;" parent="ia34TQOyg5Zt1-6da5yi-9" vertex="1">
          <mxGeometry x="5.891349532710308" y="7.389071207430328" width="18.076527347781223" height="18.076527347781223" as="geometry" />
        </mxCell>
        <mxCell id="ia34TQOyg5Zt1-6da5yi-7" value="&lt;font style=&quot;font-size: 11px;&quot;&gt;YubiKey&lt;/font&gt;" style="text;html=1;strokeColor=none;fillColor=none;align=center;verticalAlign=middle;whiteSpace=wrap;rounded=0;fontColor=#ffff00;" parent="ia34TQOyg5Zt1-6da5yi-9" vertex="1">
          <mxGeometry x="25.692829906541995" y="6.98430856553144" width="43.06542056074766" height="18.946336429308573" as="geometry" />
        </mxCell>
        <mxCell id="ia34TQOyg5Zt1-6da5yi-8" value="" style="shape=image;verticalLabelPosition=bottom;labelBackgroundColor=default;verticalAlign=top;aspect=fixed;imageAspect=0;image=data:image/svg+xml,PHN2ZyB4bWxucz0iaHR0cDovL3d3dy53My5vcmcvMjAwMC9zdmciIHZpZXdCb3g9IjAgMCAxNiAxNiIgY2xhc3M9ImJpIGJpLWZpbmdlcnByaW50IiBmaWxsPSJjdXJyZW50Q29sb3IiIGhlaWdodD0iMTYiIHdpZHRoPSIxNiI+JiN4YTsgIDxwYXRoIGQ9Ik04LjA2IDYuNWEuNS41IDAgMCAxIC41LjV2Ljc3NmExMS41IDExLjUgMCAwIDEtLjU1MiAzLjUxOWwtMS4zMzEgNC4xNGEuNS41IDAgMCAxLS45NTItLjMwNWwxLjMzLTQuMTQxYTEwLjUgMTAuNSAwIDAgMCAuNTA0LTMuMjEzVjdhLjUuNSAwIDAgMSAuNS0uNVoiLz4mI3hhOyAgPHBhdGggZD0iTTYuMDYgN2EyIDIgMCAxIDEgNCAwIC41LjUgMCAxIDEtMSAwIDEgMSAwIDEgMC0yIDB2LjMzMnEwIC42MTMtLjA2NiAxLjIyMUEuNS41IDAgMCAxIDYgOC40NDdxLjA2LS41NTUuMDYtMS4xMTV6bTMuNTA5IDFhLjUuNSAwIDAgMSAuNDg3LjUxMyAxMS41IDExLjUgMCAwIDEtLjU4NyAzLjMzOWwtMS4yNjYgMy44YS41LjUgMCAwIDEtLjk0OS0uMzE3bDEuMjY3LTMuOGExMC41IDEwLjUgMCAwIDAgLjUzNS0zLjA0OEEuNS41IDAgMCAxIDkuNTY5IDhtLTMuMzU2IDIuMTE1YS41LjUgMCAwIDEgLjMzLjYyNkw1LjI0IDE0LjkzOWEuNS41IDAgMSAxLS45NTUtLjI5NmwxLjMwMy00LjE5OWEuNS41IDAgMCAxIC42MjUtLjMyOSIvPiYjeGE7ICA8cGF0aCBkPSJNNC43NTkgNS44MzNBMy41MDEgMy41MDEgMCAwIDEgMTEuNTU5IDdhLjUuNSAwIDAgMS0xIDAgMi41IDIuNSAwIDAgMC00Ljg1Ny0uODMzLjUuNSAwIDEgMS0uOTQzLS4zMzRtLjMgMS42N2EuNS41IDAgMCAxIC40NDkuNTQ2IDEwLjcgMTAuNyAwIDAgMS0uNCAyLjAzMWwtMS4yMjIgNC4wNzJhLjUuNSAwIDEgMS0uOTU4LS4yODdMNC4xNSA5Ljc5M2E5LjcgOS43IDAgMCAwIC4zNjMtMS44NDIuNS41IDAgMCAxIC41NDYtLjQ0OVptNiAuNjQ3YS41LjUgMCAwIDEgLjUuNWMwIDEuMjgtLjIxMyAyLjU1Mi0uNjMyIDMuNzYybC0xLjA5IDMuMTQ1YS41LjUgMCAwIDEtLjk0NC0uMzI3bDEuMDg5LTMuMTQ1Yy4zODItMS4xMDUuNTc4LTIuMjY2LjU3OC0zLjQzNWEuNS41IDAgMCAxIC41LS41WiIvPiYjeGE7ICA8cGF0aCBkPSJNMy45MDIgNC4yMjJhNSA1IDAgMCAxIDUuMjAyLTIuMTEzLjUuNSAwIDAgMS0uMjA4Ljk3OSA0IDQgMCAwIDAtNC4xNjMgMS42OS41LjUgMCAwIDEtLjgzMS0uNTU2bTYuNzItLjk1NWEuNS41IDAgMCAxIC43MDUtLjA1MkE0Ljk5IDQuOTkgMCAwIDEgMTMuMDU5IDd2MS41YS41LjUgMCAxIDEtMSAwVjdhMy45OSAzLjk5IDAgMCAwLTEuMzg2LTMuMDI4LjUuNSAwIDAgMS0uMDUxLS43MDVNMy42OCA1Ljg0MmEuNS41IDAgMCAxIC40MjIuNTY4cS0uMDQ0LjI4OS0uMDQ0LjU5YzAgLjcxLS4xIDEuNDE3LS4yOTggMi4xbC0xLjE0IDMuOTIzYS41LjUgMCAxIDEtLjk2LS4yNzlMMi44IDguODIxQTYuNSA2LjUgMCAwIDAgMy4wNTggN3EwLS4zNzUuMDU0LS43MzZhLjUuNSAwIDAgMSAuNTY4LS40MjJtOC44ODIgMy42NmEuNS41IDAgMCAxIC40NTYuNTRjLS4wODQgMS0uMjk4IDEuOTg2LS42NCAyLjkzNGwtLjc0NCAyLjA2OGEuNS41IDAgMCAxLS45NDEtLjMzOGwuNzQ1LTIuMDdhMTAuNSAxMC41IDAgMCAwIC41ODQtMi42NzguNS41IDAgMCAxIC41NC0uNDU2Ii8+JiN4YTsgIDxwYXRoIGQ9Ik00LjgxIDEuMzdBNi41IDYuNSAwIDAgMSAxNC41NiA3YS41LjUgMCAxIDEtMSAwIDUuNSA1LjUgMCAwIDAtOC4yNS00Ljc2NS41LjUgMCAwIDEtLjUtLjg2NW0tLjg5IDEuMjU3YS41LjUgMCAwIDEgLjA0LjcwNkE1LjQ4IDUuNDggMCAwIDAgMi41NiA3YS41LjUgMCAwIDEtMSAwYzAtMS42NjQuNjI2LTMuMTg0IDEuNjU1LTQuMzMzYS41LjUgMCAwIDEgLjcwNi0uMDRaTTEuOTE1IDguMDJhLjUuNSAwIDAgMSAuMzQ2LjYxNmwtLjc3OSAyLjc2N2EuNS41IDAgMSAxLS45NjItLjI3bC43NzgtMi43NjdhLjUuNSAwIDAgMSAuNjE3LS4zNDZtMTIuMTUuNDgxYS41LjUgMCAwIDEgLjQ5LjUxYy0uMDMgMS40OTktLjE2MSAzLjAyNS0uNzI3IDQuNTMzbC0uMDcuMTg3YS41LjUgMCAwIDEtLjkzNi0uMzUxbC4wNy0uMTg3Yy41MDYtMS4zNS42MzQtMi43NC42NjMtNC4yMDJhLjUuNSAwIDAgMSAuNTEtLjQ5Ii8+JiN4YTs8L3N2Zz4=;rotation=-90;" parent="ia34TQOyg5Zt1-6da5yi-9" vertex="1">
          <mxGeometry x="7.915424299065467" y="8.982285861713116" width="14.020288957688342" height="14.020288957688342" as="geometry" />
        </mxCell>
        <mxCell id="ia34TQOyg5Zt1-6da5yi-10" value="Challenge-reponse HMAC-SHA1" style="text;html=1;strokeColor=none;fillColor=none;align=left;verticalAlign=middle;whiteSpace=wrap;rounded=0;spacingLeft=3;" parent="Gh66UIWxWMUWXdYuz4zB-1" vertex="1">
          <mxGeometry x="674" y="187" width="110" height="30" as="geometry" />
        </mxCell>
        <mxCell id="ia34TQOyg5Zt1-6da5yi-16" value="GnuPG-&lt;br&gt;encrypted&lt;br&gt;static key" style="text;html=1;strokeColor=none;fillColor=none;align=left;verticalAlign=middle;whiteSpace=wrap;rounded=0;spacingLeft=3;" parent="Gh66UIWxWMUWXdYuz4zB-1" vertex="1">
          <mxGeometry x="716" y="240.45" width="74" height="47.1" as="geometry" />
        </mxCell>
        <mxCell id="ia34TQOyg5Zt1-6da5yi-17" style="edgeStyle=orthogonalEdgeStyle;rounded=1;html=1;entryX=0;entryY=0.5;entryDx=0;entryDy=0;entryPerimeter=0;exitX=1;exitY=0.5;exitDx=0;exitDy=0;" parent="Gh66UIWxWMUWXdYuz4zB-1" source="pyn4r2zV2VYASzcD6feB-1" target="ia34TQOyg5Zt1-6da5yi-15" edge="1">
          <mxGeometry relative="1" as="geometry">
            <mxPoint x="712.1111111111111" y="256.5858121942896" as="targetPoint" />
            <Array as="points">
              <mxPoint x="660" y="199" />
              <mxPoint x="660" y="264" />
            </Array>
          </mxGeometry>
        </mxCell>
        <mxCell id="pyn4r2zV2VYASzcD6feB-0" value="1" style="rounded=1;whiteSpace=wrap;html=1;fillColor=#ffcc99;strokeColor=#36393d;" parent="Gh66UIWxWMUWXdYuz4zB-1" vertex="1">
          <mxGeometry x="79" y="380" width="20" height="20" as="geometry" />
        </mxCell>
        <mxCell id="pyn4r2zV2VYASzcD6feB-1" value="2" style="rounded=1;whiteSpace=wrap;html=1;fillColor=#ffcc99;strokeColor=#36393d;" parent="Gh66UIWxWMUWXdYuz4zB-1" vertex="1">
          <mxGeometry x="623" y="189.38" width="20" height="20" as="geometry" />
        </mxCell>
        <mxCell id="pyn4r2zV2VYASzcD6feB-2" value="3" style="rounded=1;whiteSpace=wrap;html=1;fillColor=#ffcc99;strokeColor=#36393d;" parent="Gh66UIWxWMUWXdYuz4zB-1" vertex="1">
          <mxGeometry x="599.9999999999999" y="308" width="20" height="20" as="geometry" />
        </mxCell>
        <mxCell id="pyn4r2zV2VYASzcD6feB-5" value="4" style="rounded=1;whiteSpace=wrap;html=1;fillColor=#ffcc99;strokeColor=#36393d;" parent="Gh66UIWxWMUWXdYuz4zB-1" vertex="1">
          <mxGeometry x="427.9999999999999" y="448" width="20" height="20" as="geometry" />
        </mxCell>
        <mxCell id="pyn4r2zV2VYASzcD6feB-6" value="5" style="rounded=1;whiteSpace=wrap;html=1;fillColor=#ffcc99;strokeColor=#36393d;" parent="Gh66UIWxWMUWXdYuz4zB-1" vertex="1">
          <mxGeometry x="427.9999999999999" y="554" width="20" height="20" as="geometry" />
        </mxCell>
        <mxCell id="pyn4r2zV2VYASzcD6feB-9" value="Any command-line application" style="text;html=1;strokeColor=none;fillColor=none;align=left;verticalAlign=middle;whiteSpace=wrap;rounded=0;spacingLeft=3;" parent="Gh66UIWxWMUWXdYuz4zB-1" vertex="1">
          <mxGeometry x="716" y="319" width="90" height="30" as="geometry" />
        </mxCell>
        <mxCell id="pyn4r2zV2VYASzcD6feB-12" value="" style="sketch=0;points=[[0,0,0],[0.25,0,0],[0.5,0,0],[0.75,0,0],[1,0,0],[0,1,0],[0.25,1,0],[0.5,1,0],[0.75,1,0],[1,1,0],[0,0.25,0],[0,0.5,0],[0,0.75,0],[1,0.25,0],[1,0.5,0],[1,0.75,0]];outlineConnect=0;fontColor=#232F3E;fillColor=#000099;strokeColor=#ffffff;dashed=0;verticalLabelPosition=bottom;verticalAlign=top;align=center;html=1;fontSize=12;fontStyle=0;aspect=fixed;shape=mxgraph.aws4.resourceIcon;resIcon=mxgraph.aws4.command_line_interface;" parent="Gh66UIWxWMUWXdYuz4zB-1" vertex="1">
          <mxGeometry x="683.5" y="318.5" width="31" height="31" as="geometry" />
        </mxCell>
        <mxCell id="pyn4r2zV2VYASzcD6feB-18" value="" style="group;strokeWidth=2;" parent="Gh66UIWxWMUWXdYuz4zB-1" vertex="1" connectable="0">
          <mxGeometry x="684" y="244" width="30" height="40" as="geometry" />
        </mxCell>
        <mxCell id="ia34TQOyg5Zt1-6da5yi-15" value="" style="shape=note;whiteSpace=wrap;html=1;backgroundOutline=1;darkOpacity=0.05;strokeColor=#DA4026;size=7;strokeWidth=2;" parent="pyn4r2zV2VYASzcD6feB-18" vertex="1">
          <mxGeometry width="30" height="40" as="geometry" />
        </mxCell>
        <mxCell id="pyn4r2zV2VYASzcD6feB-17" value="" style="sketch=0;pointerEvents=1;shadow=0;dashed=0;html=1;strokeColor=none;labelPosition=center;verticalLabelPosition=bottom;verticalAlign=top;outlineConnect=0;align=center;shape=mxgraph.office.security.lock_protected;fillColor=#DA4026;" parent="pyn4r2zV2VYASzcD6feB-18" vertex="1">
          <mxGeometry x="5.139999999999986" y="8.779999999999973" width="19.32" height="26.44" as="geometry" />
        </mxCell>
        <mxCell id="pyn4r2zV2VYASzcD6feB-29" style="edgeStyle=orthogonalEdgeStyle;rounded=1;html=1;entryX=0;entryY=0.5;entryDx=0;entryDy=0;endArrow=none;endFill=0;" parent="Gh66UIWxWMUWXdYuz4zB-1" source="oEFmnX0xsvGXvviFBwLB-19" edge="1">
          <mxGeometry relative="1" as="geometry">
            <mxPoint x="623" y="199.3800000000001" as="targetPoint" />
          </mxGeometry>
        </mxCell>
      </root>
    </mxGraphModel>
  </diagram>
  <diagram name="Configuration" id="5h4-w-WbeT-Q2c4rvBky">
    <mxGraphModel dx="1421" dy="872" grid="1" gridSize="10" guides="1" tooltips="1" connect="1" arrows="1" fold="1" page="0" pageScale="1" pageWidth="827" pageHeight="1169" math="0" shadow="0">
      <root>
        <mxCell id="Bzekry2NbGq93cBBIcv9-0" />
        <mxCell id="Bzekry2NbGq93cBBIcv9-1" parent="Bzekry2NbGq93cBBIcv9-0" />
        <mxCell id="Bzekry2NbGq93cBBIcv9-2" value="" style="rounded=0;whiteSpace=wrap;html=1;strokeColor=none;labelBorderColor=default;" vertex="1" parent="Bzekry2NbGq93cBBIcv9-1">
          <mxGeometry x="47.690000000000055" y="245" width="580" height="430" as="geometry" />
        </mxCell>
        <mxCell id="N_2h7wb-juEF3cCPtvTk-33" value="encrypted&lt;br&gt;static key" style="shape=note;whiteSpace=wrap;html=1;backgroundOutline=1;darkOpacity=0.05;strokeColor=#000000;size=7;strokeWidth=1;align=left;spacingLeft=3;container=0;" vertex="1" parent="Bzekry2NbGq93cBBIcv9-1">
          <mxGeometry x="152" y="270" width="85" height="39.37" as="geometry" />
        </mxCell>
        <mxCell id="N_2h7wb-juEF3cCPtvTk-32" style="edgeStyle=orthogonalEdgeStyle;rounded=1;html=1;endArrow=none;endFill=0;" edge="1" parent="Bzekry2NbGq93cBBIcv9-1" source="N_2h7wb-juEF3cCPtvTk-33" target="Bzekry2NbGq93cBBIcv9-26">
          <mxGeometry relative="1" as="geometry">
            <mxPoint x="197.44999999999987" y="191.05999999999995" as="sourcePoint" />
          </mxGeometry>
        </mxCell>
        <mxCell id="Bzekry2NbGq93cBBIcv9-5" value="&lt;div&gt;5c8e82b7402c93c53a5d556b1...&lt;/div&gt;" style="rounded=0;whiteSpace=wrap;html=1;align=left;verticalAlign=top;spacingLeft=5;" vertex="1" parent="Bzekry2NbGq93cBBIcv9-1">
          <mxGeometry x="414.69" y="520" width="190" height="30" as="geometry" />
        </mxCell>
        <mxCell id="Bzekry2NbGq93cBBIcv9-6" value="&lt;div&gt;&lt;span style=&quot;background-color: initial;&quot;&gt;-----BEGIN PGP MESSAGE-----&lt;/span&gt;&lt;br&gt;&lt;/div&gt;&lt;div&gt;&lt;span style=&quot;background-color: initial;&quot;&gt;jA0EBwMCwaomXBEkcsLe0jcB&lt;/span&gt;&lt;br&gt;&lt;/div&gt;&lt;div&gt;o2LoeivDotvy8wAO8VWWD7Pw&lt;/div&gt;&lt;div&gt;tP9Z+rewa2yFBK3e9jjXd2DtqNt/&lt;/div&gt;&lt;div&gt;=6wLa&lt;/div&gt;&lt;div&gt;-----END PGP MESSAGE-----&lt;/div&gt;" style="rounded=0;whiteSpace=wrap;html=1;align=left;verticalAlign=top;spacingLeft=5;" vertex="1" parent="Bzekry2NbGq93cBBIcv9-1">
          <mxGeometry x="414.69" y="550" width="190" height="100" as="geometry" />
        </mxCell>
        <mxCell id="Bzekry2NbGq93cBBIcv9-7" value="Encrypted file" style="rounded=0;whiteSpace=wrap;html=1;align=center;verticalAlign=top;fillColor=#cce5ff;strokeColor=#36393d;" vertex="1" parent="Bzekry2NbGq93cBBIcv9-1">
          <mxGeometry x="414.69" y="490" width="190" height="30" as="geometry" />
        </mxCell>
        <mxCell id="Bzekry2NbGq93cBBIcv9-8" style="edgeStyle=orthogonalEdgeStyle;rounded=1;html=1;exitX=0.5;exitY=1;exitDx=0;exitDy=0;" edge="1" parent="Bzekry2NbGq93cBBIcv9-1" source="Bzekry2NbGq93cBBIcv9-28" target="Bzekry2NbGq93cBBIcv9-17">
          <mxGeometry relative="1" as="geometry">
            <mxPoint x="410.9999999999998" y="394.0000000000001" as="sourcePoint" />
            <mxPoint x="411" y="505" as="targetPoint" />
          </mxGeometry>
        </mxCell>
        <mxCell id="Bzekry2NbGq93cBBIcv9-13" value="Plain text" style="rounded=0;whiteSpace=wrap;html=1;align=center;verticalAlign=top;fillColor=#cce5ff;strokeColor=#36393d;" vertex="1" parent="Bzekry2NbGq93cBBIcv9-1">
          <mxGeometry x="70" y="540" width="140" height="30" as="geometry" />
        </mxCell>
        <mxCell id="Bzekry2NbGq93cBBIcv9-14" style="edgeStyle=orthogonalEdgeStyle;rounded=1;html=1;entryX=0;entryY=0.5;entryDx=0;entryDy=0;startArrow=classic;startFill=1;" edge="1" parent="Bzekry2NbGq93cBBIcv9-1" source="Bzekry2NbGq93cBBIcv9-15" target="Bzekry2NbGq93cBBIcv9-17">
          <mxGeometry relative="1" as="geometry" />
        </mxCell>
        <mxCell id="Bzekry2NbGq93cBBIcv9-15" value="&lt;div&gt;Secret sandwich recipe&lt;/div&gt;&lt;div&gt;- bread&lt;/div&gt;&lt;div&gt;&lt;span style=&quot;background-color: initial;&quot;&gt;- vegemite&lt;/span&gt;&lt;br&gt;&lt;/div&gt;" style="rounded=0;whiteSpace=wrap;html=1;align=left;verticalAlign=top;spacingLeft=5;" vertex="1" parent="Bzekry2NbGq93cBBIcv9-1">
          <mxGeometry x="70" y="570" width="140" height="58" as="geometry" />
        </mxCell>
        <mxCell id="Bzekry2NbGq93cBBIcv9-16" style="edgeStyle=orthogonalEdgeStyle;rounded=1;html=1;startArrow=classic;startFill=1;" edge="1" parent="Bzekry2NbGq93cBBIcv9-1" source="Bzekry2NbGq93cBBIcv9-17" target="Bzekry2NbGq93cBBIcv9-6">
          <mxGeometry relative="1" as="geometry" />
        </mxCell>
        <mxCell id="Bzekry2NbGq93cBBIcv9-17" value="en-/decrypt symmetrically with GnuPG" style="ellipse;whiteSpace=wrap;html=1;aspect=fixed;spacingTop=0;" vertex="1" parent="Bzekry2NbGq93cBBIcv9-1">
          <mxGeometry x="280" y="560" width="79" height="79" as="geometry" />
        </mxCell>
        <mxCell id="Bzekry2NbGq93cBBIcv9-22" style="edgeStyle=orthogonalEdgeStyle;rounded=1;html=1;entryX=0.5;entryY=0;entryDx=0;entryDy=0;" edge="1" parent="Bzekry2NbGq93cBBIcv9-1" source="Bzekry2NbGq93cBBIcv9-23" target="Bzekry2NbGq93cBBIcv9-28">
          <mxGeometry relative="1" as="geometry" />
        </mxCell>
        <mxCell id="Bzekry2NbGq93cBBIcv9-23" value="challenge&lt;br&gt;response" style="ellipse;whiteSpace=wrap;html=1;aspect=fixed;spacingTop=0;" vertex="1" parent="Bzekry2NbGq93cBBIcv9-1">
          <mxGeometry x="289.49999999999994" y="390" width="60" height="60" as="geometry" />
        </mxCell>
        <mxCell id="Bzekry2NbGq93cBBIcv9-25" style="edgeStyle=orthogonalEdgeStyle;rounded=1;html=1;" edge="1" parent="Bzekry2NbGq93cBBIcv9-1" source="Bzekry2NbGq93cBBIcv9-26" target="Bzekry2NbGq93cBBIcv9-42">
          <mxGeometry relative="1" as="geometry" />
        </mxCell>
        <mxCell id="Bzekry2NbGq93cBBIcv9-26" value="decrypt static key" style="ellipse;whiteSpace=wrap;html=1;aspect=fixed;spacingTop=0;" vertex="1" parent="Bzekry2NbGq93cBBIcv9-1">
          <mxGeometry x="164.7" y="390" width="60" height="60" as="geometry" />
        </mxCell>
        <mxCell id="Bzekry2NbGq93cBBIcv9-28" value="key 2" style="rounded=0;whiteSpace=wrap;html=1;align=center;verticalAlign=top;spacingLeft=0;" vertex="1" parent="Bzekry2NbGq93cBBIcv9-1">
          <mxGeometry x="293.545" y="470" width="51.83" height="30" as="geometry" />
        </mxCell>
        <mxCell id="Bzekry2NbGq93cBBIcv9-38" value="seed" style="edgeStyle=orthogonalEdgeStyle;rounded=1;html=1;exitX=0;exitY=0.5;exitDx=0;exitDy=0;entryX=1;entryY=0.5;entryDx=0;entryDy=0;" edge="1" parent="Bzekry2NbGq93cBBIcv9-1" source="Bzekry2NbGq93cBBIcv9-5" target="Bzekry2NbGq93cBBIcv9-23">
          <mxGeometry relative="1" as="geometry">
            <mxPoint x="345" y="150" as="sourcePoint" />
          </mxGeometry>
        </mxCell>
        <mxCell id="Bzekry2NbGq93cBBIcv9-42" value="key 1" style="rounded=0;whiteSpace=wrap;html=1;align=center;verticalAlign=top;spacingLeft=0;" vertex="1" parent="Bzekry2NbGq93cBBIcv9-1">
          <mxGeometry x="168.7" y="470" width="52" height="30" as="geometry" />
        </mxCell>
        <mxCell id="Bzekry2NbGq93cBBIcv9-45" style="edgeStyle=orthogonalEdgeStyle;rounded=1;html=1;exitX=0.5;exitY=1;exitDx=0;exitDy=0;entryX=0.5;entryY=0;entryDx=0;entryDy=0;" edge="1" parent="Bzekry2NbGq93cBBIcv9-1" source="Bzekry2NbGq93cBBIcv9-42" target="Bzekry2NbGq93cBBIcv9-17">
          <mxGeometry relative="1" as="geometry">
            <mxPoint x="486" y="394.0000000000001" as="sourcePoint" />
            <mxPoint x="410.9999999999998" y="505" as="targetPoint" />
            <Array as="points">
              <mxPoint x="195" y="520" />
              <mxPoint x="320" y="520" />
            </Array>
          </mxGeometry>
        </mxCell>
        <mxCell id="Bzekry2NbGq93cBBIcv9-66" value="2" style="rounded=1;whiteSpace=wrap;html=1;fillColor=#ffcc99;strokeColor=#36393d;" vertex="1" parent="Bzekry2NbGq93cBBIcv9-1">
          <mxGeometry x="332.21" y="382" width="20" height="20" as="geometry" />
        </mxCell>
        <mxCell id="N_2h7wb-juEF3cCPtvTk-1" value="" style="group" vertex="1" connectable="0" parent="Bzekry2NbGq93cBBIcv9-1">
          <mxGeometry x="276" y="270" width="110.44" height="40" as="geometry" />
        </mxCell>
        <mxCell id="N_2h7wb-juEF3cCPtvTk-2" value="" style="rounded=1;whiteSpace=wrap;html=1;fillColor=#000000;strokeColor=none;" vertex="1" parent="N_2h7wb-juEF3cCPtvTk-1">
          <mxGeometry x="78.26456692913389" y="7.826086956521759" width="32.17543307086614" height="26.08695652173913" as="geometry" />
        </mxCell>
        <mxCell id="N_2h7wb-juEF3cCPtvTk-3" value="" style="rounded=0;whiteSpace=wrap;html=1;fillColor=#ffff88;strokeColor=none;" vertex="1" parent="N_2h7wb-juEF3cCPtvTk-1">
          <mxGeometry x="80.87338582677157" y="10.765217391304343" width="26.088188976377946" height="2.2782608695652176" as="geometry" />
        </mxCell>
        <mxCell id="N_2h7wb-juEF3cCPtvTk-4" value="" style="rounded=0;whiteSpace=wrap;html=1;fillColor=#ffff88;strokeColor=none;" vertex="1" parent="N_2h7wb-juEF3cCPtvTk-1">
          <mxGeometry x="80.87338582677157" y="28.42608695652173" width="26.088188976377946" height="2.2782608695652176" as="geometry" />
        </mxCell>
        <mxCell id="N_2h7wb-juEF3cCPtvTk-5" value="" style="rounded=0;whiteSpace=wrap;html=1;fillColor=#ffff88;strokeColor=none;" vertex="1" parent="N_2h7wb-juEF3cCPtvTk-1">
          <mxGeometry x="80.87338582677157" y="16.521739130434778" width="26.088188976377946" height="2.2782608695652176" as="geometry" />
        </mxCell>
        <mxCell id="N_2h7wb-juEF3cCPtvTk-6" value="" style="rounded=0;whiteSpace=wrap;html=1;fillColor=#ffff88;strokeColor=none;" vertex="1" parent="N_2h7wb-juEF3cCPtvTk-1">
          <mxGeometry x="80.87338582677157" y="22.6695652173913" width="26.088188976377946" height="2.2782608695652176" as="geometry" />
        </mxCell>
        <mxCell id="N_2h7wb-juEF3cCPtvTk-7" value="" style="rounded=1;whiteSpace=wrap;html=1;fillColor=#000000;strokeColor=none;" vertex="1" parent="N_2h7wb-juEF3cCPtvTk-1">
          <mxGeometry width="86.96062992125984" height="40.00000000000001" as="geometry" />
        </mxCell>
        <mxCell id="N_2h7wb-juEF3cCPtvTk-8" value="" style="ellipse;whiteSpace=wrap;html=1;aspect=fixed;fillColor=#ffff88;strokeColor=none;" vertex="1" parent="N_2h7wb-juEF3cCPtvTk-1">
          <mxGeometry x="7.059902803738351" y="8.854489164086672" width="21.66150670794634" height="21.66150670794634" as="geometry" />
        </mxCell>
        <mxCell id="N_2h7wb-juEF3cCPtvTk-9" value="&lt;font style=&quot;font-size: 11px;&quot;&gt;YubiKey&lt;/font&gt;" style="text;html=1;strokeColor=none;fillColor=none;align=center;verticalAlign=middle;whiteSpace=wrap;rounded=0;fontColor=#ffff00;" vertex="1" parent="N_2h7wb-juEF3cCPtvTk-1">
          <mxGeometry x="30.78902056074759" y="8.3694530443756" width="51.60747663551401" height="22.70381836945305" as="geometry" />
        </mxCell>
        <mxCell id="N_2h7wb-juEF3cCPtvTk-10" value="" style="shape=image;verticalLabelPosition=bottom;labelBackgroundColor=default;verticalAlign=top;aspect=fixed;imageAspect=0;image=data:image/svg+xml,PHN2ZyB4bWxucz0iaHR0cDovL3d3dy53My5vcmcvMjAwMC9zdmciIHZpZXdCb3g9IjAgMCAxNiAxNiIgY2xhc3M9ImJpIGJpLWZpbmdlcnByaW50IiBmaWxsPSJjdXJyZW50Q29sb3IiIGhlaWdodD0iMTYiIHdpZHRoPSIxNiI+JiN4YTsgIDxwYXRoIGQ9Ik04LjA2IDYuNWEuNS41IDAgMCAxIC41LjV2Ljc3NmExMS41IDExLjUgMCAwIDEtLjU1MiAzLjUxOWwtMS4zMzEgNC4xNGEuNS41IDAgMCAxLS45NTItLjMwNWwxLjMzLTQuMTQxYTEwLjUgMTAuNSAwIDAgMCAuNTA0LTMuMjEzVjdhLjUuNSAwIDAgMSAuNS0uNVoiLz4mI3hhOyAgPHBhdGggZD0iTTYuMDYgN2EyIDIgMCAxIDEgNCAwIC41LjUgMCAxIDEtMSAwIDEgMSAwIDEgMC0yIDB2LjMzMnEwIC42MTMtLjA2NiAxLjIyMUEuNS41IDAgMCAxIDYgOC40NDdxLjA2LS41NTUuMDYtMS4xMTV6bTMuNTA5IDFhLjUuNSAwIDAgMSAuNDg3LjUxMyAxMS41IDExLjUgMCAwIDEtLjU4NyAzLjMzOWwtMS4yNjYgMy44YS41LjUgMCAwIDEtLjk0OS0uMzE3bDEuMjY3LTMuOGExMC41IDEwLjUgMCAwIDAgLjUzNS0zLjA0OEEuNS41IDAgMCAxIDkuNTY5IDhtLTMuMzU2IDIuMTE1YS41LjUgMCAwIDEgLjMzLjYyNkw1LjI0IDE0LjkzOWEuNS41IDAgMSAxLS45NTUtLjI5NmwxLjMwMy00LjE5OWEuNS41IDAgMCAxIC42MjUtLjMyOSIvPiYjeGE7ICA8cGF0aCBkPSJNNC43NTkgNS44MzNBMy41MDEgMy41MDEgMCAwIDEgMTEuNTU5IDdhLjUuNSAwIDAgMS0xIDAgMi41IDIuNSAwIDAgMC00Ljg1Ny0uODMzLjUuNSAwIDEgMS0uOTQzLS4zMzRtLjMgMS42N2EuNS41IDAgMCAxIC40NDkuNTQ2IDEwLjcgMTAuNyAwIDAgMS0uNCAyLjAzMWwtMS4yMjIgNC4wNzJhLjUuNSAwIDEgMS0uOTU4LS4yODdMNC4xNSA5Ljc5M2E5LjcgOS43IDAgMCAwIC4zNjMtMS44NDIuNS41IDAgMCAxIC41NDYtLjQ0OVptNiAuNjQ3YS41LjUgMCAwIDEgLjUuNWMwIDEuMjgtLjIxMyAyLjU1Mi0uNjMyIDMuNzYybC0xLjA5IDMuMTQ1YS41LjUgMCAwIDEtLjk0NC0uMzI3bDEuMDg5LTMuMTQ1Yy4zODItMS4xMDUuNTc4LTIuMjY2LjU3OC0zLjQzNWEuNS41IDAgMCAxIC41LS41WiIvPiYjeGE7ICA8cGF0aCBkPSJNMy45MDIgNC4yMjJhNSA1IDAgMCAxIDUuMjAyLTIuMTEzLjUuNSAwIDAgMS0uMjA4Ljk3OSA0IDQgMCAwIDAtNC4xNjMgMS42OS41LjUgMCAwIDEtLjgzMS0uNTU2bTYuNzItLjk1NWEuNS41IDAgMCAxIC43MDUtLjA1MkE0Ljk5IDQuOTkgMCAwIDEgMTMuMDU5IDd2MS41YS41LjUgMCAxIDEtMSAwVjdhMy45OSAzLjk5IDAgMCAwLTEuMzg2LTMuMDI4LjUuNSAwIDAgMS0uMDUxLS43MDVNMy42OCA1Ljg0MmEuNS41IDAgMCAxIC40MjIuNTY4cS0uMDQ0LjI4OS0uMDQ0LjU5YzAgLjcxLS4xIDEuNDE3LS4yOTggMi4xbC0xLjE0IDMuOTIzYS41LjUgMCAxIDEtLjk2LS4yNzlMMi44IDguODIxQTYuNSA2LjUgMCAwIDAgMy4wNTggN3EwLS4zNzUuMDU0LS43MzZhLjUuNSAwIDAgMSAuNTY4LS40MjJtOC44ODIgMy42NmEuNS41IDAgMCAxIC40NTYuNTRjLS4wODQgMS0uMjk4IDEuOTg2LS42NCAyLjkzNGwtLjc0NCAyLjA2OGEuNS41IDAgMCAxLS45NDEtLjMzOGwuNzQ1LTIuMDdhMTAuNSAxMC41IDAgMCAwIC41ODQtMi42NzguNS41IDAgMCAxIC41NC0uNDU2Ii8+JiN4YTsgIDxwYXRoIGQ9Ik00LjgxIDEuMzdBNi41IDYuNSAwIDAgMSAxNC41NiA3YS41LjUgMCAxIDEtMSAwIDUuNSA1LjUgMCAwIDAtOC4yNS00Ljc2NS41LjUgMCAwIDEtLjUtLjg2NW0tLjg5IDEuMjU3YS41LjUgMCAwIDEgLjA0LjcwNkE1LjQ4IDUuNDggMCAwIDAgMi41NiA3YS41LjUgMCAwIDEtMSAwYzAtMS42NjQuNjI2LTMuMTg0IDEuNjU1LTQuMzMzYS41LjUgMCAwIDEgLjcwNi0uMDRaTTEuOTE1IDguMDJhLjUuNSAwIDAgMSAuMzQ2LjYxNmwtLjc3OSAyLjc2N2EuNS41IDAgMSAxLS45NjItLjI3bC43NzgtMi43NjdhLjUuNSAwIDAgMSAuNjE3LS4zNDZtMTIuMTUuNDgxYS41LjUgMCAwIDEgLjQ5LjUxYy0uMDMgMS40OTktLjE2MSAzLjAyNS0uNzI3IDQuNTMzbC0uMDcuMTg3YS41LjUgMCAwIDEtLjkzNi0uMzUxbC4wNy0uMTg3Yy41MDYtMS4zNS42MzQtMi43NC42NjMtNC4yMDJhLjUuNSAwIDAgMSAuNTEtLjQ5Ii8+JiN4YTs8L3N2Zz4=;rotation=-90;" vertex="1" parent="N_2h7wb-juEF3cCPtvTk-1">
          <mxGeometry x="9.485454205607532" y="10.763673890608885" width="16.800825593395256" height="16.800825593395256" as="geometry" />
        </mxCell>
        <mxCell id="N_2h7wb-juEF3cCPtvTk-24" style="edgeStyle=orthogonalEdgeStyle;rounded=1;html=1;entryX=1;entryY=0.5;entryDx=0;entryDy=0;exitX=0.5;exitY=1;exitDx=0;exitDy=0;exitPerimeter=0;endArrow=none;endFill=0;" edge="1" parent="Bzekry2NbGq93cBBIcv9-1" source="N_2h7wb-juEF3cCPtvTk-17" target="N_2h7wb-juEF3cCPtvTk-21">
          <mxGeometry relative="1" as="geometry">
            <mxPoint x="360.313" y="167.85599999999994" as="sourcePoint" />
          </mxGeometry>
        </mxCell>
        <mxCell id="N_2h7wb-juEF3cCPtvTk-20" value="********" style="strokeWidth=1;html=1;shadow=0;dashed=0;shape=mxgraph.ios.iTextInput;strokeColor=#444444;align=left;buttonText=;fontSize=8;whiteSpace=wrap;" vertex="1" parent="Bzekry2NbGq93cBBIcv9-1">
          <mxGeometry x="456.59999999999997" y="324.37" width="43.5" height="15" as="geometry" />
        </mxCell>
        <mxCell id="N_2h7wb-juEF3cCPtvTk-23" style="edgeStyle=orthogonalEdgeStyle;rounded=1;html=1;entryX=0.5;entryY=0;entryDx=0;entryDy=0;endArrow=none;endFill=0;" edge="1" parent="Bzekry2NbGq93cBBIcv9-1" source="N_2h7wb-juEF3cCPtvTk-21" target="Bzekry2NbGq93cBBIcv9-23">
          <mxGeometry relative="1" as="geometry" />
        </mxCell>
        <mxCell id="N_2h7wb-juEF3cCPtvTk-21" value="or" style="rhombus;whiteSpace=wrap;html=1;" vertex="1" parent="Bzekry2NbGq93cBBIcv9-1">
          <mxGeometry x="306.9599999999999" y="350" width="25" height="25" as="geometry" />
        </mxCell>
        <mxCell id="N_2h7wb-juEF3cCPtvTk-22" style="edgeStyle=orthogonalEdgeStyle;rounded=1;html=1;entryX=0.5;entryY=0;entryDx=0;entryDy=0;exitX=0.5;exitY=1;exitDx=0;exitDy=0;endArrow=none;endFill=0;" edge="1" parent="Bzekry2NbGq93cBBIcv9-1" source="N_2h7wb-juEF3cCPtvTk-7" target="N_2h7wb-juEF3cCPtvTk-21">
          <mxGeometry relative="1" as="geometry" />
        </mxCell>
        <mxCell id="N_2h7wb-juEF3cCPtvTk-30" value="" style="group" vertex="1" connectable="0" parent="Bzekry2NbGq93cBBIcv9-1">
          <mxGeometry x="308.5" y="321.37" width="21" height="21" as="geometry" />
        </mxCell>
        <mxCell id="N_2h7wb-juEF3cCPtvTk-29" value="" style="whiteSpace=wrap;html=1;aspect=fixed;strokeColor=default;" vertex="1" parent="N_2h7wb-juEF3cCPtvTk-30">
          <mxGeometry width="21" height="21" as="geometry" />
        </mxCell>
        <mxCell id="N_2h7wb-juEF3cCPtvTk-28" value="" style="shape=image;verticalLabelPosition=bottom;labelBackgroundColor=default;verticalAlign=top;aspect=fixed;imageAspect=0;image=data:image/svg+xml,PHN2ZyB4bWxuczp4bGluaz0iaHR0cDovL3d3dy53My5vcmcvMTk5OS94bGluayIgeG1sbnM9Imh0dHA6Ly93d3cudzMub3JnLzIwMDAvc3ZnIiBkYXRhLXRlc3RpZD0iVG91Y2hBcHBJY29uIiB2aWV3Qm94PSIwIDAgMjQgMjQiIGFyaWEtaGlkZGVuPSJ0cnVlIiBjbGFzcz0iTXVpU3ZnSWNvbi1yb290IE11aVN2Z0ljb24tZm9udFNpemVNZWRpdW0gY3NzLW05c2ltYiI+PHBhdGggZD0iTTkgMTEuMjRWNy41QzkgNi4xMiAxMC4xMiA1IDExLjUgNVMxNCA2LjEyIDE0IDcuNXYzLjc0YzEuMjEtLjgxIDItMi4xOCAyLTMuNzRDMTYgNS4wMSAxMy45OSAzIDExLjUgM1M3IDUuMDEgNyA3LjVjMCAxLjU2Ljc5IDIuOTMgMiAzLjc0bTkuODQgNC42My00LjU0LTIuMjZjLS4xNy0uMDctLjM1LS4xMS0uNTQtLjExSDEzdi02YzAtLjgzLS42Ny0xLjUtMS41LTEuNVMxMCA2LjY3IDEwIDcuNXYxMC43NGMtMy42LS43Ni0zLjU0LS43NS0zLjY3LS43NS0uMzEgMC0uNTkuMTMtLjc5LjMzbC0uNzkuOCA0Ljk0IDQuOTRjLjI3LjI3LjY1LjQ0IDEuMDYuNDRoNi43OWMuNzUgMCAxLjMzLS41NSAxLjQ0LTEuMjhsLjc1LTUuMjdjLjAxLS4wNy4wMi0uMTQuMDItLjIgMC0uNjItLjM4LTEuMTYtLjkxLTEuMzgiLz48L3N2Zz4=;" vertex="1" parent="N_2h7wb-juEF3cCPtvTk-30">
          <mxGeometry x="0.7" y="1.049999999999999" width="18.900000000000002" height="18.900000000000002" as="geometry" />
        </mxCell>
        <mxCell id="N_2h7wb-juEF3cCPtvTk-31" value="********" style="strokeWidth=1;html=1;shadow=0;dashed=0;shape=mxgraph.ios.iTextInput;strokeColor=#444444;align=left;buttonText=;fontSize=8;whiteSpace=wrap;" vertex="1" parent="Bzekry2NbGq93cBBIcv9-1">
          <mxGeometry x="173.95" y="324.37" width="43.5" height="15" as="geometry" />
        </mxCell>
        <mxCell id="N_2h7wb-juEF3cCPtvTk-17" value="encrypted HMAC&lt;br&gt;secret key" style="shape=note;whiteSpace=wrap;html=1;backgroundOutline=1;darkOpacity=0.05;strokeColor=#000000;size=9;strokeWidth=1;align=left;spacingLeft=3;" vertex="1" parent="Bzekry2NbGq93cBBIcv9-1">
          <mxGeometry x="420" y="270" width="117" height="39.37" as="geometry" />
        </mxCell>
        <mxCell id="N_2h7wb-juEF3cCPtvTk-18" value="" style="sketch=0;pointerEvents=1;shadow=0;dashed=0;html=1;strokeColor=none;labelPosition=center;verticalLabelPosition=bottom;verticalAlign=top;outlineConnect=0;align=center;shape=mxgraph.office.security.lock_protected;fillColor=#DA4026;" vertex="1" parent="Bzekry2NbGq93cBBIcv9-1">
          <mxGeometry x="518.69" y="285.40999999999997" width="14.91" height="20.4" as="geometry" />
        </mxCell>
        <mxCell id="Bzekry2NbGq93cBBIcv9-69" value="1" style="rounded=1;whiteSpace=wrap;html=1;fillColor=#ffcc99;strokeColor=#36393d;" vertex="1" parent="Bzekry2NbGq93cBBIcv9-1">
          <mxGeometry x="207.69999999999987" y="382" width="20" height="20" as="geometry" />
        </mxCell>
        <mxCell id="N_2h7wb-juEF3cCPtvTk-34" value="" style="sketch=0;pointerEvents=1;shadow=0;dashed=0;html=1;strokeColor=none;labelPosition=center;verticalLabelPosition=bottom;verticalAlign=top;outlineConnect=0;align=center;shape=mxgraph.office.security.lock_protected;fillColor=#DA4026;container=0;" vertex="1" parent="Bzekry2NbGq93cBBIcv9-1">
          <mxGeometry x="219.24" y="286" width="14.91" height="20.4" as="geometry" />
        </mxCell>
      </root>
    </mxGraphModel>
  </diagram>
</mxfile>
